<svg xmlns="http://www.w3.org/2000/svg" viewBox="0 0 400 400" role="img" aria-label="Mascota de Rucka Monkey: mono con lentes de sol">
  <defs>
    <radialGradient id="fur" cx="45%" cy="35%" r="70%"><stop offset="0" stop-color="#a0643a"/><stop offset="1" stop-color="#6e3d1e"/></radialGradient>
    <radialGradient id="face" cx="50%" cy="40%" r="65%"><stop offset="0" stop-color="#ffe3bf"/><stop offset="1" stop-color="#f3c28e"/></radialGradient>
    <linearGradient id="lens" x1="0" y1="0" x2="1" y2="1"><stop offset="0" stop-color="#2b2f45"/><stop offset=".55" stop-color="#11131d"/><stop offset="1" stop-color="#3a2050"/></linearGradient>
  </defs>
  <!-- orejas -->
  <circle cx="72" cy="205" r="52" fill="url(#fur)"/><circle cx="74" cy="207" r="31" fill="#f0b98a"/>
  <circle cx="328" cy="205" r="52" fill="url(#fur)"/><circle cx="326" cy="207" r="31" fill="#f0b98a"/>
  <!-- cabeza -->
  <ellipse cx="200" cy="200" rx="135" ry="128" fill="url(#fur)"/>
  <!-- mechón -->
  <path d="M176 78 q10 -38 34 -30 q-14 10 -6 26 q14 -22 36 -12 q-20 6 -22 22Z" fill="#6e3d1e"/>
  <!-- cara (forma de corazón) -->
  <path d="M200 132 C160 96 92 110 96 176 C98 214 118 236 132 256 C150 300 176 318 200 318 C224 318 250 300 268 256 C282 236 302 214 304 176 C308 110 240 96 200 132Z" fill="url(#face)"/>
  <!-- lentes de sol -->
  <path d="M104 170 Q104 150 126 150 L180 150 Q196 150 194 168 L190 196 Q186 222 160 222 L136 222 Q108 222 106 196Z" fill="url(#lens)"/>
  <path d="M296 170 Q296 150 274 150 L220 150 Q204 150 206 168 L210 196 Q214 222 240 222 L264 222 Q292 222 294 196Z" fill="url(#lens)"/>
  <path d="M192 164 Q200 156 208 164" stroke="#11131d" stroke-width="9" fill="none" stroke-linecap="round"/>
  <path d="M106 160 L84 150 M294 160 L316 150" stroke="#11131d" stroke-width="8" stroke-linecap="round"/>
  <path d="M122 164 L150 164 L130 202Z" fill="#fff" opacity=".22"/><path d="M226 164 L254 164 L234 202Z" fill="#fff" opacity=".22"/>
  <path d="M160 206 q10 -4 16 -14" stroke="#ffc83d" stroke-width="4" fill="none" stroke-linecap="round" opacity=".7"/>
  <path d="M262 206 q10 -4 16 -14" stroke="#ffc83d" stroke-width="4" fill="none" stroke-linecap="round" opacity=".7"/>
  <!-- nariz -->
  <ellipse cx="188" cy="246" rx="6" ry="4.5" fill="#8a5230"/><ellipse cx="212" cy="246" rx="6" ry="4.5" fill="#8a5230"/>
  <!-- sonrisa -->
  <path d="M150 262 Q200 316 250 262 Q246 300 200 304 Q154 300 150 262Z" fill="#7a2e1c"/>
  <path d="M168 284 Q200 304 232 284 Q222 300 200 301 Q178 300 168 284Z" fill="#ff7a6b"/>
  <path d="M152 262 Q200 282 248 262" stroke="#fff" stroke-width="7" fill="none" stroke-linecap="round"/>
  <!-- mejillas -->
  <ellipse cx="128" cy="252" rx="17" ry="10" fill="#ff8f70" opacity=".45"/><ellipse cx="272" cy="252" rx="17" ry="10" fill="#ff8f70" opacity=".45"/>
</svg>
