<svg xmlns="http://www.w3.org/2000/svg" viewBox="0 0 400 300" role="img" aria-label="Ilustración">
<defs><radialGradient id="bg" cx="50%" cy="40%" r="75%"><stop offset="0" stop-color="#eef7e4"/><stop offset="1" stop-color="#4f772d"/></radialGradient>
<linearGradient id="bun" x1="0" y1="0" x2="0" y2="1"><stop offset="0" stop-color="#f3b45c"/><stop offset="1" stop-color="#c97a2c"/></linearGradient>
<linearGradient id="fry" x1="0" y1="0" x2="0" y2="1"><stop offset="0" stop-color="#ffe07a"/><stop offset="1" stop-color="#f0b429"/></linearGradient>
<linearGradient id="meat" x1="0" y1="0" x2="0" y2="1"><stop offset="0" stop-color="#8a4a2b"/><stop offset="1" stop-color="#5a2c17"/></linearGradient>
<linearGradient id="gloss" x1="0" y1="0" x2="1" y2="0"><stop offset="0" stop-color="#fff" stop-opacity=".0"/><stop offset=".5" stop-color="#fff" stop-opacity=".35"/><stop offset="1" stop-color="#fff" stop-opacity="0"/></linearGradient></defs>
<rect width="400" height="300" fill="url(#bg)"/>
<g opacity=".12" fill="#fff"><circle cx="40" cy="40" r="6"/><circle cx="360" cy="60" r="9"/><circle cx="330" cy="250" r="5"/><circle cx="70" cy="240" r="8"/><circle cx="200" cy="24" r="4"/></g>
<ellipse cx="200" cy="262" rx="140" ry="16" fill="#000" opacity=".18"/>
<path d="M182 40 h36 v26 q0 12 12 24 q22 22 22 56 v100 q0 14 -14 14 h-76 q-14 0 -14 -14 v-100 q0 -34 22 -56 q12 -12 12 -24Z" fill="#6a994e" opacity=".85"/>
<rect x="180" y="30" width="40" height="18" rx="4" fill="#386641"/><rect x="148" y="150" width="104" height="54" fill="#f4a261"/><rect x="148" y="166" width="104" height="22" fill="#fff" opacity=".85"/>
<rect x="160" y="100" width="12" height="150" fill="url(#gloss)"/>
</svg>