<svg xmlns="http://www.w3.org/2000/svg" viewBox="0 0 400 300" role="img" aria-label="Ilustración">
<defs><radialGradient id="bg" cx="50%" cy="40%" r="75%"><stop offset="0" stop-color="#ffe8a3"/><stop offset="1" stop-color="#f59a3a"/></radialGradient>
<linearGradient id="bun" x1="0" y1="0" x2="0" y2="1"><stop offset="0" stop-color="#f3b45c"/><stop offset="1" stop-color="#c97a2c"/></linearGradient>
<linearGradient id="fry" x1="0" y1="0" x2="0" y2="1"><stop offset="0" stop-color="#ffe07a"/><stop offset="1" stop-color="#f0b429"/></linearGradient>
<linearGradient id="meat" x1="0" y1="0" x2="0" y2="1"><stop offset="0" stop-color="#8a4a2b"/><stop offset="1" stop-color="#5a2c17"/></linearGradient>
<linearGradient id="gloss" x1="0" y1="0" x2="1" y2="0"><stop offset="0" stop-color="#fff" stop-opacity=".0"/><stop offset=".5" stop-color="#fff" stop-opacity=".35"/><stop offset="1" stop-color="#fff" stop-opacity="0"/></linearGradient></defs>
<rect width="400" height="300" fill="url(#bg)"/>
<g opacity=".12" fill="#fff"><circle cx="40" cy="40" r="6"/><circle cx="360" cy="60" r="9"/><circle cx="330" cy="250" r="5"/><circle cx="70" cy="240" r="8"/><circle cx="200" cy="24" r="4"/></g>
<ellipse cx="200" cy="262" rx="140" ry="16" fill="#000" opacity=".18"/>
<rect x="130" y="88" width="14" height="98" rx="3" fill="url(#fry)" stroke="#d99a1e" stroke-width="1.5" transform="rotate(-1.1 137 162)"/><rect x="146" y="70" width="14" height="132" rx="3" fill="url(#fry)" stroke="#d99a1e" stroke-width="1.5" transform="rotate(4.9 153 162)"/><rect x="162" y="71" width="14" height="130" rx="3" fill="url(#fry)" stroke="#d99a1e" stroke-width="1.5" transform="rotate(-1.6 168 162)"/><rect x="177" y="69" width="14" height="133" rx="3" fill="url(#fry)" stroke="#d99a1e" stroke-width="1.5" transform="rotate(0.8 184 162)"/><rect x="193" y="90" width="14" height="94" rx="3" fill="url(#fry)" stroke="#d99a1e" stroke-width="1.5" transform="rotate(-1.1 200 162)"/><rect x="209" y="91" width="14" height="93" rx="3" fill="url(#fry)" stroke="#d99a1e" stroke-width="1.5" transform="rotate(10.4 216 162)"/><rect x="224" y="64" width="14" height="141" rx="3" fill="url(#fry)" stroke="#d99a1e" stroke-width="1.5" transform="rotate(-4.0 232 162)"/><rect x="240" y="83" width="14" height="107" rx="3" fill="url(#fry)" stroke="#d99a1e" stroke-width="1.5" transform="rotate(6.4 247 162)"/><rect x="256" y="86" width="14" height="101" rx="3" fill="url(#fry)" stroke="#d99a1e" stroke-width="1.5" transform="rotate(-7.7 263 162)"/><path d="M125 142 L275 142 L257 262 L143 262 Z" fill="#d7263d"/><path d="M125 142 L275 142 L271 164 L129 164 Z" fill="#b01e31"/><path d="M174 202 q26 -26 52 0 q-26 26 -52 0Z" fill="#ffd23f"/><rect x="135" y="170" width="10" height="80" fill="url(#gloss)" opacity=".6"/>
</svg>